<svg width="420" height="150" viewBox="0 0 420 150" fill="none" xmlns="http://www.w3.org/2000/svg">
<path d="M91.626 47.3917C98.4035 43.7117 105.694 43.0829 112.168 46.3202C126.329 53.424 131.266 76.2719 123.231 97.3498C115.196 118.451 97.2156 129.794 83.0781 122.69C82.0621 122.178 81.0927 121.586 80.1735 120.921C77.4973 118.985 73.8273 118.984 71.1504 120.919C70.2294 121.585 69.2592 122.177 68.2421 122.69C54.0814 129.794 36.1012 118.451 28.0658 97.3498C20.0306 76.2719 24.9917 53.4238 39.1287 46.3202C45.6035 43.0829 52.8702 43.6883 59.6246 47.345C59.6246 47.345 59.741 47.415 59.9739 47.5315C61.5112 48.3467 68.1256 51.6073 74.7402 51.6073C81.3312 51.6073 89.4131 48.3465 91.3231 47.5315C91.4629 47.4617 91.556 47.415 91.626 47.3917Z" fill="#B1CC33" stroke="#B1CC33" stroke-width="2" stroke-miterlimit="10" stroke-linecap="round" stroke-linejoin="round"/>
<path d="M102.931 44.2379C102.754 44.2183 102.597 44.2379 102.42 44.2575L102.499 43.7854C102.656 43.9429 102.794 44.0806 102.931 44.2379Z" fill="#F4AA41"/>
<path d="M75.4554 119.425L74.9908 119.561C73.7025 119.677 72.4146 120.046 71.2954 120.705C71.1475 120.783 70.9785 120.88 70.8308 120.977C69.8383 121.636 68.8035 122.218 67.7056 122.723C64.5591 124.177 61.2227 124.837 57.8439 124.817C57.7596 124.817 57.6752 124.817 57.5906 124.798C58.2029 124.041 62.3839 119.425 75.4554 119.425Z" fill="#5C9E31" stroke="#5C9E31" stroke-width="2" stroke-miterlimit="10" stroke-linejoin="round"/>
<path d="M123.229 97.3412C116.227 115.75 99.7944 130.939 78.6512 119.958C95.9017 123.686 138.845 80.8398 102.931 44.2379C106.098 44.179 109.225 44.8477 112.175 46.3227C126.336 53.4229 131.273 76.2769 123.229 97.3412Z" fill="#5C9E31" stroke="#5C9E31" stroke-width="2" stroke-miterlimit="10" stroke-linejoin="round"/>
<path d="M100.943 35.8835C109.185 38.6527 115.202 48.0071 115.202 48.0071C115.202 48.0071 104.758 51.8308 96.5156 49.0617C88.2848 46.2962 82.2565 36.9381 82.2565 36.9381C82.2565 36.9381 92.7123 33.1181 100.943 35.8835Z" fill="#B1CC33"/>
<path d="M73.8627 42.8385V31.4621L64.8137 22.4131" stroke="black" stroke-width="2" stroke-miterlimit="10" stroke-linecap="round" stroke-linejoin="round"/>
<path d="M120.295 53.3231C127.896 63.6342 129.455 81.0231 123.231 97.35C115.196 118.451 97.2156 129.794 83.0781 122.69C82.0621 122.178 81.0927 121.587 80.1735 120.921C77.4973 118.985 73.8273 118.984 71.1504 120.92C70.2294 121.586 69.2592 122.178 68.2421 122.69C54.0814 129.794 36.1012 118.451 28.0658 97.35C20.0306 76.2721 24.9917 53.424 39.1287 46.3204C45.6035 43.0831 52.8702 43.6886 59.6246 47.3452C59.6246 47.3452 59.741 47.4152 59.974 47.5317C61.5112 48.3469 68.1256 51.6075 74.7402 51.6075C76.2542 51.6075 77.8467 51.4354 79.425 51.1606C79.425 51.1606 81.901 50.7815 83.8542 50.1956" stroke="black" stroke-width="2" stroke-miterlimit="10" stroke-linecap="round" stroke-linejoin="round"/>
<path d="M100.943 35.8836C109.185 38.6527 115.202 48.0071 115.202 48.0071C115.202 48.0071 104.758 51.8308 96.5156 49.0617C88.2848 46.2963 82.2565 36.9381 82.2565 36.9381C82.2565 36.9381 92.7123 33.1181 100.943 35.8836Z" stroke="black" stroke-width="2" stroke-miterlimit="10" stroke-linecap="round" stroke-linejoin="round"/>
<path d="M166.668 106.648C163.404 106.648 160.776 106.204 158.784 105.316C156.816 104.428 155.376 103.012 154.464 101.068C153.552 99.124 153.036 96.58 152.916 93.436C152.844 91.108 152.784 88.564 152.736 85.804C152.712 83.044 152.7 80.236 152.7 77.38C152.7 74.5 152.712 71.692 152.736 68.956C152.784 66.22 152.844 63.712 152.916 61.432C153.036 58.12 153.564 55.456 154.5 53.44C155.46 51.424 156.924 49.972 158.892 49.084C160.86 48.196 163.452 47.752 166.668 47.752C171.228 47.752 174.552 48.772 176.64 50.812C178.752 52.828 179.94 56.188 180.204 60.892C180.276 62.188 180.312 63.64 180.312 65.248C180.312 66.832 180.276 68.284 180.204 69.604H170.916C170.988 68.092 171.024 66.352 171.024 64.384C171.024 62.416 170.988 60.688 170.916 59.2C170.844 57.928 170.448 56.968 169.728 56.32C169.008 55.672 167.988 55.348 166.668 55.348C165.228 55.348 164.136 55.672 163.392 56.32C162.672 56.968 162.276 57.928 162.204 59.2C162.084 61.96 161.988 64.864 161.916 67.912C161.868 70.96 161.844 74.056 161.844 77.2C161.844 80.32 161.868 83.404 161.916 86.452C161.988 89.476 162.084 92.368 162.204 95.128C162.276 96.424 162.672 97.408 163.392 98.08C164.136 98.728 165.228 99.052 166.668 99.052C168.108 99.052 169.236 98.728 170.052 98.08C170.868 97.408 171.312 96.424 171.384 95.128C171.432 94.384 171.456 93.52 171.456 92.536C171.48 91.528 171.48 90.52 171.456 89.512C171.456 88.504 171.432 87.64 171.384 86.92H167.244V78.82H180.456C180.552 80.908 180.588 83.248 180.564 85.84C180.54 88.408 180.48 90.94 180.384 93.436C180.168 98.164 178.992 101.548 176.856 103.588C174.744 105.628 171.348 106.648 166.668 106.648ZM186.11 106V62.8H195.398V67.876H197.054C197.318 65.884 197.942 64.504 198.926 63.736C199.934 62.944 201.218 62.548 202.778 62.548C203.354 62.548 203.906 62.572 204.434 62.62C204.986 62.668 205.406 62.704 205.694 62.728V69.856H202.922C200.33 69.856 198.494 70.264 197.414 71.08C196.358 71.896 195.686 73.048 195.398 74.536V106H186.11ZM221.143 106.648C216.655 106.648 213.379 105.736 211.315 103.912C209.275 102.088 208.135 99.076 207.895 94.876C207.847 93.772 207.811 92.308 207.787 90.484C207.763 88.636 207.751 86.668 207.751 84.58C207.751 82.492 207.763 80.512 207.787 78.64C207.811 76.744 207.847 75.22 207.895 74.068C208.183 69.772 209.335 66.712 211.351 64.888C213.391 63.064 216.619 62.152 221.035 62.152C225.427 62.152 228.607 63.052 230.575 64.852C232.567 66.628 233.659 69.58 233.851 73.708C233.875 74.284 233.887 75.256 233.887 76.624C233.911 77.968 233.911 79.48 233.887 81.16C233.887 82.84 233.851 84.448 233.779 85.984H217.075C217.075 87.64 217.087 89.296 217.111 90.952C217.159 92.584 217.195 94.216 217.219 95.848C217.267 97.24 217.591 98.224 218.191 98.8C218.791 99.376 219.775 99.664 221.143 99.664C222.391 99.664 223.279 99.376 223.807 98.8C224.359 98.224 224.671 97.24 224.743 95.848C224.791 95.176 224.815 94.312 224.815 93.256C224.815 92.176 224.791 90.988 224.743 89.692H233.779C233.827 90.148 233.863 90.916 233.887 91.996C233.911 93.076 233.899 94.036 233.851 94.876C233.659 99.076 232.579 102.088 230.611 103.912C228.667 105.736 225.511 106.648 221.143 106.648ZM217.075 79.504H224.815C224.815 78.472 224.815 77.488 224.815 76.552C224.815 75.592 224.803 74.776 224.779 74.104C224.779 73.408 224.767 72.928 224.743 72.664C224.671 71.416 224.347 70.516 223.771 69.964C223.219 69.412 222.307 69.136 221.035 69.136C219.691 69.136 218.731 69.412 218.155 69.964C217.579 70.516 217.267 71.416 217.219 72.664C217.195 73.84 217.171 74.992 217.147 76.12C217.123 77.248 217.099 78.376 217.075 79.504ZM239.337 106V62.8H248.625V67.264H250.281C251.217 65.632 252.213 64.372 253.269 63.484C254.349 62.596 255.933 62.152 258.021 62.152C260.829 62.152 263.013 63.016 264.573 64.744C266.133 66.472 266.913 69.352 266.913 73.384V106H257.625V72.628C257.625 71.356 257.325 70.432 256.725 69.856C256.149 69.256 255.273 68.956 254.097 68.956C253.065 68.956 251.997 69.268 250.893 69.892C249.813 70.492 249.057 71.32 248.625 72.376V106H239.337ZM279.133 106V56.608H270.385V48.4H297.205V56.608H288.421V106H279.133ZM307.43 106.648C304.646 106.648 302.426 105.784 300.77 104.056C299.138 102.304 298.322 99.412 298.322 95.38V62.8H307.61V96.172C307.61 97.444 307.886 98.38 308.438 98.98C309.014 99.556 309.878 99.844 311.03 99.844C312.062 99.844 313.118 99.544 314.198 98.944C315.278 98.32 316.034 97.48 316.466 96.424V62.8H325.79V106H316.466V101.536H315.17C314.186 103.36 313.082 104.668 311.858 105.46C310.634 106.252 309.158 106.648 307.43 106.648ZM350.221 106.648C348.109 106.648 346.525 106.216 345.469 105.352C344.413 104.464 343.417 103.192 342.481 101.536H341.437V106H332.149V48.4H341.437V67.264H343.093C344.029 65.608 345.025 64.348 346.081 63.484C347.137 62.596 348.721 62.152 350.833 62.152C353.641 62.152 355.753 63.016 357.169 64.744C358.609 66.472 359.425 69.352 359.617 73.384C359.665 74.8 359.701 76.48 359.725 78.424C359.749 80.368 359.761 82.384 359.761 84.472C359.761 86.56 359.749 88.564 359.725 90.484C359.701 92.404 359.665 94.036 359.617 95.38C359.425 99.412 358.513 102.304 356.881 104.056C355.273 105.784 353.053 106.648 350.221 106.648ZM346.909 99.844C348.085 99.844 348.925 99.556 349.429 98.98C349.957 98.38 350.245 97.444 350.293 96.172C350.389 94.588 350.461 92.812 350.509 90.844C350.557 88.876 350.581 86.836 350.581 84.724C350.581 82.588 350.557 80.488 350.509 78.424C350.461 76.336 350.389 74.404 350.293 72.628C350.245 71.356 349.957 70.432 349.429 69.856C348.925 69.256 348.085 68.956 346.909 68.956C345.853 68.956 344.785 69.256 343.705 69.856C342.625 70.456 341.869 71.296 341.437 72.376V96.424C341.869 97.504 342.625 98.344 343.705 98.944C344.785 99.544 345.853 99.844 346.909 99.844ZM378.292 106.648C373.804 106.648 370.528 105.736 368.464 103.912C366.424 102.088 365.284 99.076 365.044 94.876C364.996 93.772 364.96 92.308 364.936 90.484C364.912 88.636 364.9 86.668 364.9 84.58C364.9 82.492 364.912 80.512 364.936 78.64C364.96 76.744 364.996 75.22 365.044 74.068C365.332 69.772 366.484 66.712 368.5 64.888C370.54 63.064 373.768 62.152 378.184 62.152C382.576 62.152 385.756 63.052 387.724 64.852C389.716 66.628 390.808 69.58 391 73.708C391.024 74.284 391.036 75.256 391.036 76.624C391.06 77.968 391.06 79.48 391.036 81.16C391.036 82.84 391 84.448 390.928 85.984H374.224C374.224 87.64 374.236 89.296 374.26 90.952C374.308 92.584 374.344 94.216 374.368 95.848C374.416 97.24 374.74 98.224 375.34 98.8C375.94 99.376 376.924 99.664 378.292 99.664C379.54 99.664 380.428 99.376 380.956 98.8C381.508 98.224 381.82 97.24 381.892 95.848C381.94 95.176 381.964 94.312 381.964 93.256C381.964 92.176 381.94 90.988 381.892 89.692H390.928C390.976 90.148 391.012 90.916 391.036 91.996C391.06 93.076 391.048 94.036 391 94.876C390.808 99.076 389.728 102.088 387.76 103.912C385.816 105.736 382.66 106.648 378.292 106.648ZM374.224 79.504H381.964C381.964 78.472 381.964 77.488 381.964 76.552C381.964 75.592 381.952 74.776 381.928 74.104C381.928 73.408 381.916 72.928 381.892 72.664C381.82 71.416 381.496 70.516 380.92 69.964C380.368 69.412 379.456 69.136 378.184 69.136C376.84 69.136 375.88 69.412 375.304 69.964C374.728 70.516 374.416 71.416 374.368 72.664C374.344 73.84 374.32 74.992 374.296 76.12C374.272 77.248 374.248 78.376 374.224 79.504Z" fill="black"/>
</svg>